<?xml version="1.0" encoding="UTF-8" standalone="no"?>
<svg
   xmlns:dc="http://purl.org/dc/elements/1.1/"
   xmlns:cc="http://creativecommons.org/ns#"
   xmlns:rdf="http://www.w3.org/1999/02/22-rdf-syntax-ns#"
   xmlns:svg="http://www.w3.org/2000/svg"
   xmlns="http://www.w3.org/2000/svg"
   width="1278.322"
   height="465.785"
   viewBox="0 0 338.2227 123.23895"
   version="1.1"
   id="svg8">
  <defs
     id="defs2" />
  <metadata
     id="metadata5">
    <rdf:RDF>
      <cc:Work
         rdf:about="">
        <dc:format>image/svg+xml</dc:format>
        <dc:type
           rdf:resource="http://purl.org/dc/dcmitype/StillImage" />
        <dc:title></dc:title>
      </cc:Work>
    </rdf:RDF>
  </metadata>
  <g
     id="layer1">
    <g
       aria-label="Central
Motos"
       id="text12"
       style="font-style:normal;font-weight:normal;font-size:50.8px;line-height:0.95;font-family:sans-serif;fill:#e66828;fill-opacity:1;stroke:none;stroke-width:0.264583"
       transform="matrix(1.3081662,0,0,1.3081662,1.4009299,-133.80742)">
      <path
         d="m 31.055125,118.3139 -1.463476,0.96739 q -1.339453,-1.98438 -3.497461,-3.12539 -2.133203,-1.16582 -4.638477,-1.16582 -4.067968,0 -6.945312,2.87734 -2.877344,2.87734 -2.877344,6.94531 0,4.06797 2.877344,6.94531 2.877344,2.87735 6.945312,2.87735 2.505274,0 4.638477,-1.16582 2.158008,-1.16582 3.497461,-3.1502 l 1.438672,1.0418 q -1.5875,2.33164 -4.117578,3.6959 -2.530078,1.36426 -5.457032,1.36426 -2.356445,0 -4.514453,-0.91778 -2.133203,-0.91777 -3.695898,-2.48047 -1.562695,-1.56269 -2.480469,-3.69589 -0.9177731,-2.15801 -0.9177731,-4.51446 0,-2.35644 0.9177731,-4.48965 0.917774,-2.158 2.480469,-3.7207 1.562695,-1.56269 3.695898,-2.48047 2.158008,-0.91777 4.514453,-0.91777 2.951758,0 5.481836,1.38906 2.530078,1.36426 4.117578,3.7207 z m 2.951758,-2.03398 -1.488281,0.96738 q -1.835547,-2.6789 -4.7625,-4.2416 -2.902148,-1.5875 -6.300391,-1.5875 -3.646289,0 -6.72207,1.81074 -3.075781,1.78594 -4.8865231,4.86172 -1.7859375,3.07578 -1.7859375,6.72207 0,3.64629 1.7859375,6.72207 1.8107421,3.07578 4.8865231,4.88653 3.075781,1.78593 6.72207,1.78593 3.398243,0 6.325196,-1.5875 2.926953,-1.5875 4.7625,-4.29121 l 1.463476,1.01699 q -2.083594,3.07579 -5.407422,4.86172 -3.299023,1.78594 -7.14375,1.78594 -4.117578,0 -7.615039,-2.03398 -3.49746,-2.03399 -5.5314447,-5.53145 -2.0339844,-3.49746 -2.0339844,-7.61504 0,-4.11758 2.0339844,-7.61504 2.0339847,-3.49746 5.5314447,-5.53144 3.497461,-2.03399 7.615039,-2.03399 3.844727,0 7.14375,1.78594 3.323828,1.78594 5.407422,4.86172 z m 2.976563,-1.98438 -1.488282,0.96739 q -2.33164,-3.42305 -6.052343,-5.40742 -3.695899,-2.00918 -7.98711,-2.00918 -3.447851,0 -6.598046,1.33945 -3.150196,1.33945 -5.4322268,3.62148 -2.2572265,2.25723 -3.5966796,5.40743 -1.3394532,3.15019 -1.3394532,6.59804 0,3.44785 1.3394532,6.59805 1.3394531,3.15019 3.5966796,5.43223 2.2820308,2.25722 5.4322268,3.59668 3.150195,1.33945 6.598046,1.33945 4.316016,0 8.011914,-2.00918 3.695899,-2.00918 6.027539,-5.43223 l 1.438672,1.0666 q -2.579687,3.77032 -6.672461,5.97793 -4.067968,2.18282 -8.805664,2.18282 -5.08496,0 -9.400976,-2.50528 -4.3160155,-2.53008 -6.8460936,-6.84609 -2.5052734,-4.31602 -2.5052734,-9.40098 0,-5.08496 2.5052734,-9.40097 2.5300781,-4.31602 6.8460936,-6.82129 4.316016,-2.53008 9.400976,-2.53008 4.7625,0 8.855274,2.23242 4.092773,2.20762 6.672461,6.00273 z m 2.926953,-2.03398 -1.488282,0.96738 q -2.827734,-4.14238 -7.317382,-6.54843 -4.464844,-2.40606 -9.649024,-2.40606 -4.167187,0 -7.987109,1.63711 -3.7951169,1.61231 -6.5484372,4.36563 -2.7533203,2.75332 -4.3904296,6.57324 -1.6123047,3.79511 -1.6123047,7.9623 0,4.16719 1.6123047,7.98711 1.6371093,3.79512 4.3904296,6.54844 2.7533203,2.75332 6.5484372,4.39043 3.819922,1.6123 7.987109,1.6123 5.18418,0 9.673828,-2.43086 4.489649,-2.43086 7.317383,-6.57324 l 1.438672,1.09141 q -3.075781,4.46484 -7.9375,7.09414 -4.861719,2.60449 -10.492383,2.60449 -4.539257,0 -8.68164,-1.78594 -4.1175781,-1.76113 -7.1189453,-4.73769 -2.9765624,-3.00137 -4.76249988,-7.11895 -1.76113279,-4.14238 -1.76113279,-8.68164 0,-4.53926 1.76113279,-8.65683 1.78593748,-4.14239 4.76249988,-7.11895 3.0013672,-3.00137 7.1189453,-4.7625 4.142383,-1.78594 8.68164,-1.78594 5.655469,0 10.517188,2.6293 4.861718,2.6293 7.9375,7.14375 z"
         style="font-style:normal;font-variant:normal;font-weight:normal;font-stretch:normal;font-size:50.8px;font-family:Monoton;-inkscape-font-specification:Monoton;text-align:center;text-anchor:middle;stroke-width:0.264583;fill:#e66828;fill-opacity:1"
         id="path16" />
      <path
         d="m 52.263134,145.35101 h -1.785938 v -35.71875 h 1.785938 z m -3.571875,0 h -1.785938 v -35.71875 h 1.785938 z m -3.571875,0 h -1.785938 v -35.71875 h 1.785938 z m 10.715624,-8.92968 h 17.09043 v 1.78593 h -17.09043 v 1.78594 h 17.09043 v 1.78594 h -17.09043 v 1.78594 h 17.09043 v 1.78593 H 54.049071 v -35.71875 h 18.876367 v 1.78594 h -17.09043 v 1.78594 h 17.09043 v 1.78594 h -17.09043 v 1.78593 h 17.09043 v 1.78594 h -17.09043 v 4.44004 H 71.93325 v 1.78594 H 55.835008 v 1.78594 H 71.93325 v 1.78593 H 55.835008 v 1.78594 H 71.93325 v 1.78594 H 55.835008 Z"
         style="font-style:normal;font-variant:normal;font-weight:normal;font-stretch:normal;font-size:50.8px;font-family:Monoton;-inkscape-font-specification:Monoton;text-align:center;text-anchor:middle;stroke-width:0.264583;fill:#e66828;fill-opacity:1"
         id="path18" />
      <path
         d="m 105.39477,130.93949 -1.78594,-3.24941 v -18.05782 h 1.78594 z m 3.57188,6.17637 -1.78594,-3.02617 v -24.45743 h 1.78594 z m -24.606252,-13.07207 1.785937,3.24941 v 18.05781 h -1.785937 z m -3.571875,-6.42442 1.785937,3.27422 v 24.45742 h -1.785937 z m 0.620117,-7.98711 h 2.083594 l 20.687106,35.71875 h -2.08359 z m 4.216797,0 h 2.108398 l 20.662305,35.71875 h -2.1332 z m 4.191992,0 h 2.083594 l 18.851557,32.61817 v -32.61817 h 1.78594 v 35.71875 h -2.1084 z m -10.814844,3.07578 v 32.64297 h -1.785937 v -35.71875 h 2.133203 l 20.612695,35.71875 h -2.058789 z"
         style="font-style:normal;font-variant:normal;font-weight:normal;font-stretch:normal;font-size:50.8px;font-family:Monoton;-inkscape-font-specification:Monoton;text-align:center;text-anchor:middle;stroke-width:0.264583;fill:#e66828;fill-opacity:1"
         id="path20" />
      <path
         d="m 123.527,119.52933 h 1.78594 v 25.82168 H 123.527 Z m -7.14375,-8.11113 v -1.78594 h 26.78907 v 1.78594 z m 0,3.57188 v -1.78594 h 26.78907 v 1.78594 z m 0,3.57187 v -1.78594 h 26.78907 v 1.78594 z m 17.85938,0.96738 h 1.78594 v 25.82168 h -1.78594 z m -3.57188,0 h 1.78594 v 25.82168 h -1.78594 z m -3.57187,0 h 1.78594 v 25.82168 h -1.78594 z"
         style="font-style:normal;font-variant:normal;font-weight:normal;font-stretch:normal;font-size:50.8px;font-family:Monoton;-inkscape-font-specification:Monoton;text-align:center;text-anchor:middle;stroke-width:0.264583;fill:#e66828;fill-opacity:1"
         id="path22" />
      <path
         d="m 160.58521,128.28539 h 10.76523 q 2.1332,0 3.62149,-1.33945 1.48828,-1.33946 1.48828,-3.77032 0,-1.78593 -1.5627,-3.1998 -1.53789,-1.41387 -3.54707,-1.41387 h -15.3293 v 26.78906 h -1.78593 v -28.575 h 17.11523 q 2.75332,0 4.81211,1.93477 2.08359,1.93476 2.08359,4.46484 0,3.1502 -2.00918,5.03535 -2.00918,1.86036 -4.88652,1.86036 h -10.76523 z m 0,3.57187 h 10.76523 q 3.57188,0 6.12676,-2.43086 2.55488,-2.43086 2.55488,-6.25078 0,-3.24941 -2.60449,-5.70508 -2.60449,-2.48046 -6.07715,-2.48046 h -18.90117 v 30.36093 h -1.78594 v -32.14687 h 20.68711 q 4.2168,0 7.34219,3.00137 3.12539,2.97656 3.12539,6.97011 0,4.46485 -3.10059,7.46621 -3.07578,3.00137 -7.36699,3.00137 h -10.76523 z m 0,3.57188 h 10.76523 q 3.29902,0 6.10195,-1.5875 2.80293,-1.5875 4.46485,-4.41524 1.68672,-2.82773 1.68672,-6.25078 0,-3.10058 -1.66192,-5.80429 -1.66191,-2.72852 -4.51445,-4.34082 -2.82773,-1.61231 -6.07715,-1.61231 h -22.47305 v 33.93281 h -1.78593 v -35.71875 h 24.25898 q 2.80293,0 5.38262,1.11621 2.60449,1.09141 4.48965,2.92696 1.88515,1.81074 3.02617,4.31601 1.14101,2.50528 1.14101,5.18418 0,4.34082 -1.98437,7.59024 -1.98438,3.22461 -5.33301,4.91133 l 3.74551,9.67382 h -1.90996 l -3.54707,-8.95449 q -0.66973,0.22324 -1.5627,0.44649 l 3.34864,8.508 h -1.90997 l -3.27421,-8.21035 q -0.76895,0.0744 -1.61231,0.0744 l 3.1502,8.13593 h -1.88516 l -3.12539,-8.13593 h -1.61231 l 3.00137,8.13593 H 168.994 l -3.02618,-8.13593 h -5.38261 z m -0.99219,9.92187 h -1.78594 v -25.00312 h 13.54336 q 1.38906,0 2.35645,0.84336 0.96738,0.81855 0.96738,1.98437 0,3.32383 -3.32383,3.32383 h -10.76523 v -1.78594 h 10.76523 q 1.53789,0 1.53789,-1.53789 0,-0.42168 -0.47129,-0.71933 -0.44648,-0.32246 -1.0666,-0.32246 h -11.75742 z"
         style="font-style:normal;font-variant:normal;font-weight:normal;font-stretch:normal;font-size:50.8px;font-family:Monoton;-inkscape-font-specification:Monoton;text-align:center;text-anchor:middle;stroke-width:0.264583;fill:#e66828;fill-opacity:1"
         id="path24" />
      <path
         d="m 214.68423,127.73969 q 0,-3.175 -1.95957,-4.91133 -1.95957,-1.73633 -5.18418,-1.73633 -2.72851,0 -4.68808,1.88516 -1.95957,1.88515 -1.95957,4.51445 0,1.48828 0.39687,2.6789 0.39688,1.16582 1.0666,1.95957 0.69453,0.76895 1.63711,1.28985 0.94258,0.49609 1.95957,0.71933 1.0418,0.22325 2.20762,0.22325 2.82773,0 5.15938,-1.38907 v 1.78594 q -2.40606,1.26504 -5.18418,1.26504 -1.78594,0 -3.37344,-0.47129 -1.5627,-0.49609 -2.85254,-1.46347 -1.28984,-0.99219 -2.05879,-2.67891 -0.74414,-1.71152 -0.74414,-3.91914 0,-3.42305 2.40605,-5.8043 2.40606,-2.38125 6.02754,-2.38125 3.99356,0 6.44922,2.25723 2.48047,2.23242 2.48047,6.17637 v 17.61132 h -1.78594 z m 5.35782,0 v 17.61132 h -1.78594 v -17.61132 q 0,-4.68809 -3.00137,-7.44141 -3.00137,-2.77813 -7.71426,-2.77813 -4.36562,0 -7.29257,2.90215 -2.92696,2.90215 -2.92696,7.06934 0,2.53008 0.86817,4.53926 0.89296,2.00918 2.40605,3.22461 1.51309,1.21543 3.37344,1.86035 1.88515,0.62011 3.96875,0.62011 2.82773,0 5.38262,-1.31464 v 1.88515 q -2.67891,1.11621 -5.40743,1.11621 -2.45566,0 -4.66328,-0.74414 -2.20761,-0.76894 -3.94394,-2.20761 -1.73633,-1.46348 -2.75332,-3.77032 -1.017,-2.33164 -1.017,-5.20898 0,-4.88652 3.44786,-8.30957 3.47265,-3.44785 8.55761,-3.44785 3.57188,0 6.39961,1.46347 2.82774,1.43868 4.46485,4.192 1.63711,2.75332 1.63711,6.35 z m 3.57187,0 v 17.61132 h -1.78594 v -17.61132 q 0,-4.09278 -1.88515,-7.24297 -1.86035,-3.175 -5.10977,-4.86172 -3.24941,-1.68672 -7.29258,-1.68672 -3.84472,0 -7.01972,1.83555 -3.175,1.81074 -4.98575,4.91132 -1.78593,3.10059 -1.78593,6.79649 0,3.175 1.16582,5.8043 1.16582,2.60449 3.12539,4.29121 1.98437,1.68671 4.48965,2.62929 2.53007,0.91778 5.28339,0.91778 2.80293,0 5.50665,-1.16582 v 1.81074 q -2.82774,1.0666 -5.55625,1.0666 -4.29122,0 -7.8879,-1.93477 -3.59667,-1.93476 -5.75468,-5.48183 -2.15801,-3.54707 -2.15801,-7.9375 0,-3.12539 1.19062,-5.95313 1.21543,-2.82773 3.27422,-4.88652 2.05879,-2.05879 4.96094,-3.27422 2.90215,-1.21543 6.15156,-1.21543 4.53926,0 8.18555,1.93477 3.67109,1.93476 5.77949,5.50664 2.1084,3.57187 2.1084,8.13594 z m 3.57188,0 v 17.61132 h -1.78594 v -17.61132 q 0,-5.06016 -2.35645,-9.02891 -2.35644,-3.99356 -6.42441,-6.15156 -4.06797,-2.18282 -9.07852,-2.18282 -4.81211,0 -8.80566,2.30684 -3.99356,2.30684 -6.27559,6.25078 -2.28203,3.91914 -2.28203,8.55762 0,3.05097 0.96739,5.8043 0.99218,2.72851 2.6789,4.7873 1.71152,2.03398 3.91914,3.52227 2.23242,1.48828 4.78731,2.25722 2.57968,0.76895 5.23379,0.76895 2.92695,0 5.55625,-1.11621 v 1.83554 q -2.75332,0.96739 -5.65547,0.96739 -3.00137,0 -5.85391,-0.84336 -2.82773,-0.84336 -5.25859,-2.48047 -2.40606,-1.66192 -4.2416,-3.89434 -1.83555,-2.25722 -2.87735,-5.25859 -1.0418,-3.00137 -1.0418,-6.35 0,-3.84473 1.43868,-7.31738 1.46347,-3.49747 3.96875,-6.02754 2.53007,-2.55489 6.10195,-4.04317 3.59668,-1.51308 7.63984,-1.51308 4.11758,0 7.73907,1.38906 3.62148,1.38906 6.25078,3.86953 2.62929,2.45566 4.14238,6.05234 1.51309,3.59668 1.51309,7.83829 z"
         style="font-style:normal;font-variant:normal;font-weight:normal;font-stretch:normal;font-size:50.8px;font-family:Monoton;-inkscape-font-specification:Monoton;text-align:center;text-anchor:middle;stroke-width:0.264583;fill:#e66828;fill-opacity:1"
         id="path26" />
      <path
         d="m 231.60102,109.63226 h 1.78594 v 35.71875 h -1.78594 z m 10.71563,0 h 1.78594 v 26.78907 h 13.17129 v 1.78593 h -13.17129 v 1.78594 h 13.17129 v 1.78594 h -13.17129 v 1.78594 h 13.17129 v 1.78593 h -14.95723 z m -3.57188,0 h 1.78594 v 35.71875 h -1.78594 z m -3.57187,0 h 1.78594 v 35.71875 h -1.78594 z"
         style="font-style:normal;font-variant:normal;font-weight:normal;font-stretch:normal;font-size:50.8px;font-family:Monoton;-inkscape-font-specification:Monoton;text-align:center;text-anchor:middle;stroke-width:0.264583;fill:#e66828;fill-opacity:1"
         id="path28" />
      <path
         d="m 62.172605,179.52344 1.785938,-3.37343 v 18.35546 h -1.785938 z m 3.571875,-6.84609 1.785938,-3.37344 v 25.20156 H 65.74448 Z m 3.571875,-6.74688 1.785938,-3.39824 v 31.97324 h -1.785938 z m -11.980664,12.74961 -1.016992,-1.86035 12.303125,-23.39082 h 2.00918 z m -2.058789,-3.89433 -1.041797,-1.88516 10.31875,-19.47168 h 2.033985 z m -11.955859,1.56269 1.785938,3.37344 v 14.78359 h -1.785938 z m -3.571875,-6.79648 1.785938,3.37344 v 21.58007 h -1.785938 z m -3.571875,-6.79649 1.785938,3.39825 v 28.35175 h -1.785938 z m 14.436328,21.03438 h -2.009179 l -14.213086,-26.9627 v 37.67832 h -1.785938 v -41.07656 h 2.00918 z m 4.043164,0 H 52.622801 L 36.648582,153.42891 h 2.033985 z m 18.231445,-26.9627 -14.213086,26.9627 H 56.64116 L 40.691746,153.42891 h 2.00918 l 14.982031,28.47578 14.957226,-28.47578 h 2.033985 v 41.07656 H 72.88823 Z"
         style="font-style:normal;font-variant:normal;font-weight:normal;font-stretch:normal;font-size:50.8px;font-family:Monoton;-inkscape-font-specification:Monoton;text-align:center;text-anchor:middle;stroke-width:0.264583;fill:#e66828;fill-opacity:1"
         id="path30" />
      <path
         d="m 93.029635,171.61075 q -2.083593,2.08359 -2.083593,5.03535 0,2.95176 2.083593,5.06016 2.108399,2.08359 5.060157,2.08359 2.951758,0 5.035348,-2.08359 2.1084,-2.1084 2.1084,-5.06016 0,-2.95176 -2.1084,-5.03535 -2.08359,-2.1084 -5.035348,-2.1084 -2.951758,0 -5.060157,2.1084 z m -1.265039,11.36054 q -2.604492,-2.62929 -2.604492,-6.32519 0,-3.6959 2.604492,-6.30039 2.629297,-2.6293 6.325196,-2.6293 3.695898,0 6.300388,2.6293 2.6293,2.60449 2.6293,6.30039 0,3.6959 -2.6293,6.32519 -2.60449,2.6045 -6.300388,2.6045 -3.695899,0 -6.325196,-2.6045 z m -1.265039,-13.89062 q -3.12539,3.1502 -3.12539,7.56543 0,4.41523 3.12539,7.56543 3.150196,3.15019 7.590235,3.15019 4.440038,0 7.565428,-3.15019 3.1502,-3.1502 3.1502,-7.56543 0,-4.41523 -3.1502,-7.56543 -3.12539,-3.1502 -7.565428,-3.1502 -4.440039,0 -7.590235,3.1502 z m -3.249414,13.84102 q -1.661914,-2.87735 -1.661914,-6.27559 0,-3.39824 1.661914,-6.27559 1.686719,-2.87734 4.564063,-4.53925 2.877343,-1.68672 6.275586,-1.68672 3.398238,0 6.275588,1.68672 2.87734,1.66191 4.53926,4.53925 1.68671,2.87735 1.68671,6.27559 0,3.39824 -1.68671,6.27559 -1.66192,2.87734 -4.53926,4.56406 -2.87735,1.66191 -6.275588,1.66191 -3.398243,0 -6.275586,-1.66191 -2.877344,-1.68672 -4.564063,-4.56406 z m -2.33164,-11.80704 q -1.116211,2.6293 -1.116211,5.53145 0,2.90215 1.116211,5.55625 1.141015,2.6293 3.050976,4.56406 1.934766,1.90996 4.564063,3.05098 2.654101,1.11621 5.55625,1.11621 2.902148,0 5.531448,-1.11621 2.6541,-1.14102 4.56406,-3.05098 1.93476,-1.93476 3.05098,-4.56406 1.14101,-2.6541 1.14101,-5.55625 0,-2.90215 -1.14101,-5.53145 -1.11622,-2.6541 -3.05098,-4.56406 -1.90996,-1.93476 -4.56406,-3.05097 -2.6293,-1.14102 -5.531448,-1.14102 -2.902149,0 -5.55625,1.14102 -2.629297,1.11621 -4.564063,3.05097 -1.909961,1.90996 -3.050976,4.56406 z m -1.63711,11.78223 q -1.265039,-2.97656 -1.265039,-6.25078 0,-3.27422 1.265039,-6.25078 1.289844,-2.97656 3.423047,-5.10977 2.158008,-2.158 5.13457,-3.42304 2.976563,-1.28985 6.250782,-1.28985 3.274218,0 6.250778,1.28985 2.97657,1.26504 5.10977,3.42304 2.15801,2.13321 3.42305,5.10977 1.28984,2.97656 1.28984,6.25078 0,3.27422 -1.28984,6.25078 -1.26504,2.97656 -3.42305,5.13457 -2.1332,2.1332 -5.10977,3.42305 -2.97656,1.26504 -6.250778,1.26504 -3.274219,0 -6.250782,-1.26504 -2.976562,-1.28985 -5.13457,-3.42305 -2.133203,-2.15801 -3.423047,-5.13457 z m -1.637109,-13.17129 q -1.413867,3.29903 -1.413867,6.92051 0,3.62148 1.413867,6.94531 1.413867,3.29903 3.795117,5.70508 2.406055,2.38125 5.705078,3.79512 3.323828,1.41386 6.945313,1.41386 3.621488,0 6.920508,-1.41386 3.32383,-1.41387 5.70508,-3.79512 2.40605,-2.40605 3.81992,-5.70508 1.41387,-3.32383 1.41387,-6.94531 0,-3.62148 -1.41387,-6.92051 -1.41387,-3.32383 -3.81992,-5.70508 -2.38125,-2.40605 -5.70508,-3.81992 -3.29902,-1.41386 -6.920508,-1.41386 -3.621485,0 -6.945313,1.41386 -3.299023,1.41387 -5.705078,3.81992 -2.38125,2.38125 -3.795117,5.70508 z m -1.637109,14.56035 q -1.562696,-3.64629 -1.562696,-7.63984 0,-3.99355 1.562696,-7.61504 1.562695,-3.64629 4.191992,-6.27559 2.629297,-2.62929 6.250781,-4.19199 3.646289,-1.56269 7.639844,-1.56269 3.993558,0 7.615038,1.56269 3.64629,1.5627 6.27559,4.19199 2.62929,2.6293 4.19199,6.27559 1.56269,3.62149 1.56269,7.61504 0,3.99355 -1.56269,7.63984 -1.5627,3.62149 -4.19199,6.25078 -2.6293,2.6293 -6.27559,4.192 -3.62148,1.56269 -7.615038,1.56269 -3.993555,0 -7.639844,-1.56269 -3.621484,-1.5627 -6.250781,-4.192 -2.629297,-2.62929 -4.191992,-6.25078 z"
         style="font-style:normal;font-variant:normal;font-weight:normal;font-stretch:normal;font-size:50.8px;font-family:Monoton;-inkscape-font-specification:Monoton;text-align:center;text-anchor:middle;stroke-width:0.264583;fill:#e66828;fill-opacity:1"
         id="path32" />
      <path
         d="m 128.05386,168.6838 h 1.78594 v 25.82167 h -1.78594 z m -7.14375,-8.11114 v -1.78593 h 26.78906 v 1.78593 z m 0,3.57188 v -1.78594 h 26.78906 v 1.78594 z m 0,3.57187 v -1.78594 h 26.78906 v 1.78594 z m 17.85937,0.96739 h 1.78594 v 25.82167 h -1.78594 z m -3.57187,0 h 1.78594 v 25.82167 h -1.78594 z m -3.57188,0 h 1.78594 v 25.82167 h -1.78594 z"
         style="font-style:normal;font-variant:normal;font-weight:normal;font-stretch:normal;font-size:50.8px;font-family:Monoton;-inkscape-font-specification:Monoton;text-align:center;text-anchor:middle;stroke-width:0.264583;fill:#e66828;fill-opacity:1"
         id="path34" />
      <path
         d="m 165.26089,171.61075 q -2.08359,2.08359 -2.08359,5.03535 0,2.95176 2.08359,5.06016 2.1084,2.08359 5.06016,2.08359 2.95175,0 5.03535,-2.08359 2.1084,-2.1084 2.1084,-5.06016 0,-2.95176 -2.1084,-5.03535 -2.0836,-2.1084 -5.03535,-2.1084 -2.95176,0 -5.06016,2.1084 z m -1.26504,11.36054 q -2.60449,-2.62929 -2.60449,-6.32519 0,-3.6959 2.60449,-6.30039 2.6293,-2.6293 6.3252,-2.6293 3.69589,0 6.30039,2.6293 2.62929,2.60449 2.62929,6.30039 0,3.6959 -2.62929,6.32519 -2.6045,2.6045 -6.30039,2.6045 -3.6959,0 -6.3252,-2.6045 z m -1.26504,-13.89062 q -3.12539,3.1502 -3.12539,7.56543 0,4.41523 3.12539,7.56543 3.1502,3.15019 7.59024,3.15019 4.44004,0 7.56543,-3.15019 3.15019,-3.1502 3.15019,-7.56543 0,-4.41523 -3.15019,-7.56543 -3.12539,-3.1502 -7.56543,-3.1502 -4.44004,0 -7.59024,3.1502 z m -3.24941,13.84102 q -1.66192,-2.87735 -1.66192,-6.27559 0,-3.39824 1.66192,-6.27559 1.68672,-2.87734 4.56406,-4.53925 2.87734,-1.68672 6.27559,-1.68672 3.39824,0 6.27558,1.68672 2.87735,1.66191 4.53926,4.53925 1.68672,2.87735 1.68672,6.27559 0,3.39824 -1.68672,6.27559 -1.66191,2.87734 -4.53926,4.56406 -2.87734,1.66191 -6.27558,1.66191 -3.39825,0 -6.27559,-1.66191 -2.87734,-1.68672 -4.56406,-4.56406 z m -2.33164,-11.80704 q -1.11621,2.6293 -1.11621,5.53145 0,2.90215 1.11621,5.55625 1.14101,2.6293 3.05097,4.56406 1.93477,1.90996 4.56407,3.05098 2.6541,1.11621 5.55625,1.11621 2.90214,0 5.53144,-1.11621 2.6541,-1.14102 4.56406,-3.05098 1.93477,-1.93476 3.05098,-4.56406 1.14102,-2.6541 1.14102,-5.55625 0,-2.90215 -1.14102,-5.53145 -1.11621,-2.6541 -3.05098,-4.56406 -1.90996,-1.93476 -4.56406,-3.05097 -2.6293,-1.14102 -5.53144,-1.14102 -2.90215,0 -5.55625,1.14102 -2.6293,1.11621 -4.56407,3.05097 -1.90996,1.90996 -3.05097,4.56406 z m -1.63711,11.78223 q -1.26504,-2.97656 -1.26504,-6.25078 0,-3.27422 1.26504,-6.25078 1.28984,-2.97656 3.42304,-5.10977 2.15801,-2.158 5.13457,-3.42304 2.97657,-1.28985 6.25079,-1.28985 3.27421,0 6.25078,1.28985 2.97656,1.26504 5.10976,3.42304 2.15801,2.13321 3.42305,5.10977 1.28984,2.97656 1.28984,6.25078 0,3.27422 -1.28984,6.25078 -1.26504,2.97656 -3.42305,5.13457 -2.1332,2.1332 -5.10976,3.42305 -2.97657,1.26504 -6.25078,1.26504 -3.27422,0 -6.25079,-1.26504 -2.97656,-1.28985 -5.13457,-3.42305 -2.1332,-2.15801 -3.42304,-5.13457 z m -1.63711,-13.17129 q -1.41387,3.29903 -1.41387,6.92051 0,3.62148 1.41387,6.94531 1.41387,3.29903 3.79512,5.70508 2.40605,2.38125 5.70507,3.79512 3.32383,1.41386 6.94532,1.41386 3.62148,0 6.9205,-1.41386 3.32383,-1.41387 5.70508,-3.79512 2.40606,-2.40605 3.81992,-5.70508 1.41387,-3.32383 1.41387,-6.94531 0,-3.62148 -1.41387,-6.92051 -1.41386,-3.32383 -3.81992,-5.70508 -2.38125,-2.40605 -5.70508,-3.81992 -3.29902,-1.41386 -6.9205,-1.41386 -3.62149,0 -6.94532,1.41386 -3.29902,1.41387 -5.70507,3.81992 -2.38125,2.38125 -3.79512,5.70508 z m -1.63711,14.56035 q -1.5627,-3.64629 -1.5627,-7.63984 0,-3.99355 1.5627,-7.61504 1.56269,-3.64629 4.19199,-6.27559 2.6293,-2.62929 6.25078,-4.19199 3.64629,-1.56269 7.63985,-1.56269 3.99355,0 7.61504,1.56269 3.64628,1.5627 6.27558,4.19199 2.6293,2.6293 4.19199,6.27559 1.5627,3.62149 1.5627,7.61504 0,3.99355 -1.5627,7.63984 -1.56269,3.62149 -4.19199,6.25078 -2.6293,2.6293 -6.27558,4.192 -3.62149,1.56269 -7.61504,1.56269 -3.99356,0 -7.63985,-1.56269 -3.62148,-1.5627 -6.25078,-4.192 -2.6293,-2.62929 -4.19199,-6.25078 z"
         style="font-style:normal;font-variant:normal;font-weight:normal;font-stretch:normal;font-size:50.8px;font-family:Monoton;-inkscape-font-specification:Monoton;text-align:center;text-anchor:middle;stroke-width:0.264583;fill:#e66828;fill-opacity:1"
         id="path36" />
      <path
         d="m 210.38061,177.51426 h -2.82773 q -5.20899,0 -8.01191,-2.10839 -2.80293,-2.13321 -2.80293,-5.85391 0,-3.47266 3.29902,-5.77949 3.29902,-2.33164 9.25215,-2.33164 3.96875,0 7.39179,1.0914 3.44786,1.09141 5.72989,3.07578 l -1.38907,1.11621 q -2.03398,-1.66191 -5.10976,-2.57968 -3.07578,-0.91778 -6.62285,-0.91778 -5.23379,0 -8.01192,1.78594 -2.75332,1.78594 -2.75332,4.53926 0,2.97656 2.25723,4.58887 2.28203,1.5875 6.77168,1.5875 h 2.72851 q 5.2834,0 8.08633,2.1332 2.82774,2.1084 2.82774,5.8291 0,3.47266 -3.29903,5.8043 -3.29902,2.30683 -9.25214,2.30683 -3.96875,0 -7.41661,-1.0914 -3.42304,-1.09141 -5.70507,-3.07578 l 1.38906,-1.11621 q 2.03398,1.66191 5.10976,2.57968 3.07579,0.91778 6.62286,0.91778 5.23378,0 7.9871,-1.78594 2.77813,-1.78594 2.77813,-4.53926 0,-2.97656 -2.28203,-4.56406 -2.25723,-1.61231 -6.74688,-1.61231 z m 0,3.57188 h -2.82773 q -6.8957,0 -10.64121,-3.12539 -3.74551,-3.1502 -3.74551,-8.40879 0,-2.40606 1.0666,-4.51445 1.0666,-2.1084 3.05098,-3.6959 2.00918,-1.61231 5.10976,-2.53008 3.10059,-0.94258 6.89571,-0.94258 4.7873,0 8.95449,1.46348 4.16719,1.43867 6.94531,4.04316 l -1.43867,1.0666 q -2.53008,-2.28203 -6.3252,-3.52226 -3.79511,-1.26504 -8.13593,-1.26504 -6.69727,0 -10.51719,2.82773 -3.81992,2.82774 -3.81992,7.06934 0,4.48965 3.27422,7.11894 3.27422,2.6293 9.32656,2.6293 h 2.72851 q 7.34219,0 7.34219,4.39043 0,1.98438 -2.25722,3.27422 -2.23243,1.26504 -6.72207,1.26504 -3.1502,0 -5.85391,-0.71934 -2.70371,-0.74414 -4.46484,-2.1084 l 1.41386,-1.0914 q 3.10059,2.1332 8.90489,2.1332 3.7207,0 5.45703,-0.76894 1.73632,-0.76895 1.73632,-1.98438 0,-1.41387 -1.21543,-2.00918 -1.21542,-0.59531 -4.2416,-0.59531 z m 0,-7.14375 h -2.82773 q -7.24297,0 -7.24297,-4.39043 0,-1.98438 2.23242,-3.24941 2.25723,-1.28985 6.74688,-1.28985 3.15019,0 5.8539,0.74414 2.70371,0.71934 4.46485,2.0836 l -1.41387,1.0914 q -3.10059,-2.1332 -8.90488,-2.1332 -3.72071,0 -5.45703,0.76894 -1.73633,0.76895 -1.73633,1.98438 0,1.41387 1.21543,2.00918 1.21543,0.59531 4.2416,0.59531 h 2.82773 q 6.89571,0 10.64121,3.1502 3.74551,3.12539 3.74551,8.38398 0,2.40606 -1.0666,4.51445 -1.0666,2.1084 -3.07578,3.72071 -1.98438,1.5875 -5.08496,2.53008 -3.10059,0.91777 -6.8957,0.91777 -4.78731,0 -8.9545,-1.43867 -4.16718,-1.46348 -6.94531,-4.06797 l 1.43867,-1.0666 q 2.53008,2.28203 6.3252,3.54707 3.79512,1.24023 8.13594,1.24023 6.69726,0 10.51718,-2.82773 3.81992,-2.82774 3.81992,-7.06934 0,-4.48965 -3.27421,-7.11894 -3.27422,-2.6293 -9.32657,-2.6293 z"
         style="font-style:normal;font-variant:normal;font-weight:normal;font-stretch:normal;font-size:50.8px;font-family:Monoton;-inkscape-font-specification:Monoton;text-align:center;text-anchor:middle;stroke-width:0.264583;fill:#e66828;fill-opacity:1"
         id="path38" />
    </g>
  </g>
</svg>
