<?xml version="1.0" encoding="UTF-8" standalone="no"?>
<svg
   xmlns:dc="http://purl.org/dc/elements/1.1/"
   xmlns:cc="http://creativecommons.org/ns#"
   xmlns:rdf="http://www.w3.org/1999/02/22-rdf-syntax-ns#"
   xmlns:svg="http://www.w3.org/2000/svg"
   xmlns="http://www.w3.org/2000/svg"
   xmlns:sodipodi="http://sodipodi.sourceforge.net/DTD/sodipodi-0.dtd"
   xmlns:inkscape="http://www.inkscape.org/namespaces/inkscape"
   width="771.93201"
   height="620.02802"
   viewBox="0 0 204.24034 164.04907"
   version="1.1"
   id="svg891"
   inkscape:version="1.0.1 (1.0.1+r74)"
   sodipodi:docname="LogoSuzuki.svg">
  <defs
     id="defs885" />
  <sodipodi:namedview
     id="base"
     pagecolor="#ffffff"
     bordercolor="#666666"
     borderopacity="1.0"
     inkscape:pageopacity="0.0"
     inkscape:pageshadow="2"
     inkscape:zoom="0.66449955"
     inkscape:cx="482.0786"
     inkscape:cy="283.16972"
     inkscape:document-units="px"
     inkscape:current-layer="layer1"
     inkscape:document-rotation="0"
     showgrid="false"
     units="px"
     inkscape:window-width="1364"
     inkscape:window-height="704"
     inkscape:window-x="0"
     inkscape:window-y="0"
     inkscape:window-maximized="0" />
  <metadata
     id="metadata888">
    <rdf:RDF>
      <cc:Work
         rdf:about="">
        <dc:format>image/svg+xml</dc:format>
        <dc:type
           rdf:resource="http://purl.org/dc/dcmitype/StillImage" />
        <dc:title></dc:title>
      </cc:Work>
    </rdf:RDF>
  </metadata>
  <g
     inkscape:label="Layer 1"
     inkscape:groupmode="layer"
     id="layer1">
    <g
       transform="matrix(0.40565618,0,0,0.40565618,-130.98636,-83.120845)"
       id="layer1-3">
      <g
         style="fill:#e20a17;fill-opacity:1"
         transform="matrix(7.4332176,0,0,-7.4332176,684.46384,388.0002)"
         id="g3532">
        <path
           id="path3534"
           style="fill:#e20a17;fill-opacity:1;fill-rule:nonzero;stroke:none"
           d="m 0,0 c 0,0 -2.772,-0.801 -8.134,-4.096 -4.807,-2.959 -6.692,-4.947 -6.692,-4.947 l -14.83,10.249 c 0,0 6.239,4.588 11.452,1.074 l 6.993,-4.797 0.853,0.561 -19.295,13.518 c 0,0 2.773,0.802 8.132,4.095 4.81,2.96 6.695,4.949 6.695,4.949 L 0.003,10.357 c 0,0 -6.238,-4.588 -11.452,-1.074 l -6.993,4.798 -0.853,-0.56 z" />
      </g>
      <g
         style="fill:#003399;fill-opacity:1"
         transform="matrix(7.4332176,0,0,-7.4332176,599.09036,491.92699)"
         id="g3536">
        <path
           id="path3538"
           style="fill:#003399;fill-opacity:1;fill-rule:nonzero;stroke:none"
           d="m 0,0 h -11.287 v -2.51 h 5.452 l -5.644,-5.269 v -2.103 h 11.458 v 2.52 H -5.722 L 0,-2.106 Z" />
      </g>
      <g
         style="fill:#003399;fill-opacity:1"
         transform="matrix(7.4332176,0,0,-7.4332176,465.79345,567.26116)"
         id="g3540">
        <path
           id="path3542"
           style="fill:#003399;fill-opacity:1;fill-rule:nonzero;stroke:none"
           d="m 0,0 c 4.514,0 5.67,1.153 5.67,3.695 v 6.44 H 2.094 V 4.08 C 2.094,3.063 1.224,2.457 0,2.457 c -1.273,0 -2.092,0.609 -2.092,1.639 v 6.039 H -5.668 V 3.695 C -5.668,1.153 -4.512,0 0,0" />
      </g>
      <g
         style="fill:#003399;fill-opacity:1"
         transform="matrix(7.4332176,0,0,-7.4332176,647.79798,567.26116)"
         id="g3544">
        <path
           id="path3546"
           style="fill:#003399;fill-opacity:1;fill-rule:nonzero;stroke:none"
           d="m 0,0 c 4.514,0 5.67,1.153 5.67,3.695 v 6.44 H 2.093 V 4.08 C 2.093,3.063 1.222,2.457 0,2.457 c -1.273,0 -2.095,0.609 -2.095,1.639 v 6.039 H -5.67 V 3.695 C -5.67,1.153 -4.514,0 0,0" />
      </g>
      <path
         id="path3548"
         style="fill:#003399;fill-opacity:1;fill-rule:nonzero;stroke:none"
         d="m 822.64064,491.92699 h -27.71847 v 73.45505 h 27.71847 z" />
      <g
         style="fill:#003399;fill-opacity:1"
         transform="matrix(7.4332176,0,0,-7.4332176,790.69939,491.92699)"
         id="g3550">
        <path
           id="path3552"
           style="fill:#003399;fill-opacity:1;fill-rule:nonzero;stroke:none"
           d="m 0,0 h -4.906 l -3.97,-3.41 V 0 h -3.73 v -9.882 h 3.73 v 3.505 l 3.687,-3.505 h 5.01 l -5.453,5.07 z" />
      </g>
      <g
         style="fill:#003399;fill-opacity:1"
         transform="matrix(7.4332176,0,0,-7.4332176,358.14261,512.22336)"
         id="g3554">
        <path
           id="path3556"
           style="fill:#003399;fill-opacity:1;fill-rule:nonzero;stroke:none"
           d="m 0,0 c 0,0.764 1.132,0.789 1.514,0.789 0.383,0 1.246,-0.153 1.833,-1.116 h 4.217 c 0,1.862 -1.765,3.343 -6.037,3.343 -4.745,0 -5.553,-2.082 -5.553,-3.278 0,-2.205 1.708,-2.851 5.422,-3.247 0.318,-0.033 2.25,0.058 2.25,-0.871 0,-0.688 -1.086,-0.734 -1.486,-0.734 -0.397,0 -1.14,0.065 -1.754,1.158 h -4.644 c 0,-2.17 1.463,-3.424 6.391,-3.424 4.539,0 5.744,1.853 5.744,3.262 0,1.368 -0.939,2.76 -4.809,3.255 C 1.474,-0.654 0,-0.566 0,0" />
      </g>
    </g>
  </g>
</svg>
