<?xml version="1.0" encoding="UTF-8" standalone="no"?>
<svg
   xmlns:dc="http://purl.org/dc/elements/1.1/"
   xmlns:cc="http://creativecommons.org/ns#"
   xmlns:rdf="http://www.w3.org/1999/02/22-rdf-syntax-ns#"
   xmlns:svg="http://www.w3.org/2000/svg"
   xmlns="http://www.w3.org/2000/svg"
   xmlns:sodipodi="http://sodipodi.sourceforge.net/DTD/sodipodi-0.dtd"
   xmlns:inkscape="http://www.inkscape.org/namespaces/inkscape"
   width="771.93201"
   height="620.02802"
   viewBox="0 0 204.24034 164.04907"
   version="1.1"
   id="svg891"
   inkscape:version="1.0.1 (1.0.1+r74)"
   sodipodi:docname="LogoHarley.svg">
  <defs
     id="defs885" />
  <sodipodi:namedview
     id="base"
     pagecolor="#ffffff"
     bordercolor="#666666"
     borderopacity="1.0"
     inkscape:pageopacity="0.0"
     inkscape:pageshadow="2"
     inkscape:zoom="0.66449955"
     inkscape:cx="225.29815"
     inkscape:cy="321.2768"
     inkscape:document-units="px"
     inkscape:current-layer="layer1"
     inkscape:document-rotation="0"
     showgrid="false"
     units="px"
     inkscape:window-width="1364"
     inkscape:window-height="704"
     inkscape:window-x="0"
     inkscape:window-y="0"
     inkscape:window-maximized="0" />
  <metadata
     id="metadata888">
    <rdf:RDF>
      <cc:Work
         rdf:about="">
        <dc:format>image/svg+xml</dc:format>
        <dc:type
           rdf:resource="http://purl.org/dc/dcmitype/StillImage" />
        <dc:title></dc:title>
      </cc:Work>
    </rdf:RDF>
  </metadata>
  <g
     inkscape:label="Layer 1"
     inkscape:groupmode="layer"
     id="layer1">
    <g
       id="g2841"
       transform="matrix(0.97991603,0,0,0.97991603,-43.843224,-11.177237)">
      <path
         d="m 74.53,130.225 c 5.164,0 12.304,-2.994 12.537,-7.946 H 46.5 V 67.947 H 89.573 C 89.807,63.208 85.386,59.17 81.222,59.17 V 39.089 c 13.685,0 54.888,-8.479 67.788,-22.589 12.812,14.1 48,22.6 67.7,22.589 V 59.17 c -4.165,0 -8.587,4.038 -8.373,8.777 h 43.073 v 54.356 h -40.565 c 0.233,5 7.399,7.9 12.5,7.947 -29.201,26.774 -51.878,43.474 -74.378,43.474 -22.482,0 -45.2,-16.699 -74.4,-43.474 z"
         id="path2809" />
      <path
         fill="#ffffff"
         d="m 60.668,81.725 h 4.7 v 10 h 3.3 v -10 h 4.6 v 26.8 h -4.6 v -11.5 h -3.3 v 11.5 h -4.7 z m 23.127,0.034 h -6.481 l -3.635,26.732 h 4.909 l 0.595,-6.288 H 82.2 l 0.787,6.288 h 4.08 z m -3.189,15.045 h -0.914 l 0.787,-8.394 0.127,1.02 0.935,7.374 z m 19.422,7.331 V 99.48 c 0,-2.166 -0.658,-4.228 -2.125,-5.057 1.553,-0.745 2.125,-3.252 2.125,-5.078 v -2.529 c 0,-4.038 -1.891,-5.058 -5.1,-5.058 h -6.609 v 26.732 h 4.188 V 97.824 h 0.914 c 0.254,0 0.5,0 0.8,0.128 0.914,0.3 1.7,1.2 1.7,2.356 v 6.631 c 0,0.5 0.1,1 0.199,1.552 h 4.484 c -0.449,-1.267 -0.537,-2.866 -0.537,-4.356 z M 95.864,89.962 c 0,1.21 -0.66,2.231 -1.68,2.7 a 3.42,3.42 0 0 1 -1.359,0.277 h -0.318 v -8.011 h 0.425 c 0.446,0 0.899,0.101 1.3,0.297 0.979,0.5 1.7,1.5 1.7,2.5 v 2.237 z m 5.904,-8.237 h 4.5 v 22.7 h 3.9 v 4.1 h -8.4 z m 9.6,0 h 9.199 v 3.4 h -4.599 v 6.9 h 4.599 v 4.2 h -4.599 v 8.6 h 4.599 v 3.7 h -9.199 z m 9.6,0 h 4.599 l 1.401,7.8 1.9,-7.8 h 4.6 l -4.6,14.2 0.199,12.6 h -4.299 v -12.7 z m 11.599,11.1 h 7.801 v 3.899 h -7.801 z m 16.316,-11.066 h -6.8 v 26.732 h 6.8 c 2.806,0 4.464,-2.465 4.464,-4.78 V 85.457 c 0,-2.032 -2.079,-3.732 -4.479,-3.698 z m 0.298,19.666 c 0,1.295 -0.467,2.125 -1.4,2.465 -0.299,0.128 -0.66,0.171 -1.084,0.171 h -0.319 V 84.776 h 0.382 c 0.383,0 0.7,0 1,0.2 0.893,0.3 1.4,1.1 1.4,2.273 v 14.146 z m 14.663,-19.666 h -6.501 l -3.612,26.732 h 4.908 l 0.596,-6.288 h 3.019 l 0.786,6.288 h 4.08 z m -3.189,15.045 h -0.912 l 0.785,-8.394 0.127,1.02 0.914,7.374 z m 5.513,-15.079 h 4.2 l 1.6,14.2 1.599,-14.2 h 4.301 l -3.5,26.8 h -4.6 z m 12.7,0 h 4.6 v 26.7 h -4.6 z m 43.268,20.796 V 87.73 c 0,-3.272 -2.425,-5.972 -5.4,-5.972 -2.996,0 -5.44,2.677 -5.44,5.972 v 14.792 c 0,3.291 2.444,5.97 5.44,5.97 2.976,0 5.418,-2.679 5.418,-5.97 h -0.018 z m -3.552,1.167 c 0,0.81 -0.743,1.468 -1.679,1.468 -0.914,0 -1.656,-0.658 -1.656,-1.468 V 86.562 c -0.022,-0.837 0.719,-1.437 1.619,-1.466 h 0.016 c 0.936,0 1.7,0.7 1.7,1.466 z M 191.977,81.759 h -6.842 v 26.732 h 6.842 c 2.785,0 4.466,-2.465 4.466,-4.78 V 85.457 c 0,-2.032 -2.175,-3.732 -4.475,-3.698 z m 0.299,19.666 c 0,1.295 -0.49,2.125 -1.424,2.465 a 3.484,3.484 0 0 1 -1.105,0.171 H 189.45 V 84.776 h 0.361 c 0.404,0 0.7,0 1,0.2 0.914,0.3 1.4,1.1 1.4,2.273 v 14.146 z m 11.9,-16.329 c 0.767,0 1.399,0.7 1.399,1.466 v 3.74 h 4.08 v -2.571 c 0,-3.295 -2.552,-5.972 -5.652,-5.972 -3.104,0 -5.652,2.677 -5.652,5.972 v 3.676 c 0,1.2 1.301,2.5 2.301,3.21 l 3.209,2.271 c 0.7,0.5 1.799,1.301 1.799,2.763 v 4.036 c 0,0.81 -0.637,1.468 -1.402,1.468 -0.787,0 -1.426,-0.658 -1.426,-1.468 v -5.586 h -4.396 v 4.42 c 0,3.301 2.5,6 5.7,5.971 3.103,0 5.651,-2.678 5.651,-5.971 V 97.59 c 0,-1.146 -1.359,-2.466 -2.484,-3.252 l -2.699,-1.85 c -0.766,-0.53 -1.723,-1.273 -1.723,-2.229 v -3.698 c -0.129,-0.837 0.488,-1.437 1.288,-1.466 h 0.007 z m 20.092,-3.371 h 5.6 l 2.699,11.8 v -11.8 h 4.101 v 26.8 h -5.4 l -2.701,-14.9 -0.099,14.9 h -4.2 z"
         id="path2811" />
      <path
         fill="#f86700"
         d="M 148.968,72.961 H 51.515 v 44.328 H 246.42 V 72.961 Z m 92.437,39.312 H 56.53 V 77.977 h 184.876 v 34.296 z"
         id="path2813" />
      <path
         d="m 148.968,28.634 c 9.201,9.6 45.2,18.8 58.1,18.805 v 6.694 c -4.439,2.678 -8.582,6.949 -8.371,13.813 h 4.61 v -0.213 c -0.147,-4.59 3.593,-9.775 7.947,-11.284 V 43.892 c -19.251,0 -52.296,-10.243 -62.326,-21.124 -10.03,10.88 -45.942,21.124 -62.327,21.124 v 12.559 c 4.357,1.5 8.1,6.7 8,11.3 l -0.021,0.213 h 4.611 C 99.404,61.1 95.26,56.829 90.818,54.151 v -6.694 c 12.994,-0.032 48.95,-9.232 58.15,-18.823 z m 51.447,93.67 c 0.126,4.101 1.699,8.4 5.199,11.3 -13.557,11.709 -40.735,30.537 -56.631,30.537 -15.873,0 -43.074,-18.828 -56.632,-30.537 3.527,-2.932 5.058,-7.16 5.185,-11.305 h -4.609 c -0.234,4.229 -3.57,9.096 -7.927,9.839 18.487,16.4 41.3,36.8 64,36.807 22.694,0 45.497,-20.423 63.983,-36.807 -4.355,-0.743 -7.691,-5.608 -7.926,-9.839 h -4.643 v 0.005 z"
         id="path2815" />
      <path
         fill="#fa6600"
         d="m 148.968,28.634 c 9.201,9.6 45.2,18.8 58.1,18.805 v 6.694 c -4.439,2.678 -8.582,6.949 -8.371,13.813 h 4.61 v -0.213 c -0.147,-4.59 3.593,-9.775 7.947,-11.284 V 43.892 c -19.251,0 -52.296,-10.243 -62.326,-21.124 -10.03,10.88 -45.942,21.124 -62.327,21.1 v 12.559 c 4.357,1.5 8.1,6.7 8,11.284 l -0.021,0.213 h 4.611 C 99.404,61.06 95.26,56.789 90.818,54.112 v -6.694 c 12.994,0.007 48.95,-9.193 58.15,-18.784 z"
         id="path2817" />
      <path
         fill="#f86700"
         d="m 200.415,122.304 c 0.126,4.101 1.699,8.4 5.199,11.306 -13.557,11.709 -40.735,30.537 -56.631,30.5 -15.873,0 -43.074,-18.828 -56.632,-30.537 3.527,-2.933 5.058,-7.161 5.185,-11.305 h -4.609 c -0.234,4.229 -3.57,9.095 -7.927,9.799 18.487,16.4 41.3,36.801 64,36.807 22.694,0 45.497,-20.422 63.983,-36.807 -4.355,-0.743 -7.691,-5.608 -7.926,-9.838 h -4.643 v 0.075 z M 135.028,40.278 131.097,42 l -4.972,2.2 c -2.571,1.126 -3.294,1.785 -3.294,5.716 V 64.26 c 0,2 1.701,3.7 3.701,3.677 h 8.756 c 2.041,0 3.697,-1.658 3.697,-3.677 V 44.01 c -0.004,-1.985 -2.117,-4.585 -3.918,-3.731 h -0.039 z m -0.68,21.442 a 0.717,0.717 0 0 1 -0.723,0.724 h -5.079 A 0.717,0.717 0 0 1 127.823,61.72 V 50.245 c 0,-1.678 0.66,-1.572 2.998,-2.805 0.084,-0.042 0.17,-0.084 0.275,-0.148 1.658,-0.851 3.251,-1.53 3.251,-0.914 V 61.72 Z M 171.811,44.21 166.84,42 162.907,40.278 c -1.85,-0.828 -3.953,1.722 -3.953,3.741 v 20.25 c 0,2 1.699,3.7 3.699,3.677 h 8.755 c 2.041,0 3.697,-1.658 3.697,-3.677 V 49.926 c 0,-3.901 -0.738,-4.601 -3.339,-5.716 z m -1.699,17.51 a 0.716,0.716 0 0 1 -0.722,0.724 h -5.08 A 0.716,0.716 0 0 1 163.588,61.72 V 46.378 c 0,-0.617 1.6,0.1 3.3,0.914 0.106,0.1 0.2,0.1 0.3,0.1 2.338,1.2 3,1.1 3,2.805 V 61.72 Z"
         id="path2819" />
      <path
         fill="#fa6600"
         d="m 195.464,57.555 v -3.74 c 0,-1.998 -1.785,-3.442 -3.464,-3.868 l -5.165,-1.274 -8.073,-1.976 v 21.25 h 4.907 l -0.021,-5.546 h 6.44 l -0.021,5.546 h 5.397 v -3.975 c 0,-1.657 -0.999,-3.061 -2.167,-3.527 1.126,-0.42 2.172,-1.521 2.172,-2.891 h -0.005 z m -5.377,-0.042 h -6.481 l -0.021,-5.27 3.25,0.701 1.785,0.399 c 0.85,0.2 1.5,1 1.5,2.168 v 2.001 h -0.033 z"
         id="path2821" />
      <path
         fill="#f86700"
         d="m 157.745,38.749 v 5.271 l -6.036,-2.997 v 26.924 h -5.482 V 41.023 l -6.036,2.997 v -5.271 c 3.783,-1.892 6.864,-3.868 8.776,-5.865 1.915,2.041 5.001,3.941 8.801,5.865 z m -54.528,29.198 h 5.546 v -6.1 l 3.528,5.907 3.464,-6.714 v 6.906 h 5.206 v -21.42 h -1.828 c -1.169,0.339 -2.338,0.658 -3.506,1 l -3.739,9.181 -3.464,-7.437 c -1.785,0.381 -3.528,0.743 -5.207,1.04 z m 2.592,54.357 h 8.734 l 0.042,4.781 h -6.631 v 4.845 c 0.022,1.301 0.601,2.101 1.601,2.784 l 6.97,4.548 v 6.715 l -12.431,-8.818 c -0.999,-0.701 -1.785,-1.934 -1.785,-3.123 v -8.266 c -0.006,-2.145 1.359,-3.444 3.459,-3.466 z m 10.518,0 h 5.865 l 2.57,7.927 3.4,-7.927 h 5.971 l -7.203,14.662 v 15.386 c -1.85,-0.936 -3.719,-2.125 -5.568,-3.207 v -13.093 z m 21.549,0 h 10.285 v 4.356 h -6.524 c -0.956,0 -1.636,1.232 -1.636,2.381 v 21.802 c 0,1 0.699,2.101 1.6,2.468 l 6.567,2.484 v 4.908 c -3.442,-0.213 -7.353,-2.04 -11.539,-3.805 -1.933,-0.808 -2.315,-1.615 -2.315,-4.313 v -26.116 c -0.009,-2.144 1.555,-4.144 3.555,-4.165 z m 12.367,0 h 5.801 v 32.005 l 7.416,-2.509 v 5.248 c -4.801,1.892 -9.327,3.421 -13.217,3.569 z m 17.318,0 h 9.755 v 4.441 h -5.715 c -0.895,-0.021 -1.871,1.02 -1.849,1.892 l 0.021,4.994 h 5.693 l -0.02,4.633 -5.633,-0.021 v 7.204 c 0,1.2 0.801,2 2.1,1.254 l 5.438,-3.443 v 5.907 c -3.252,2.02 -6.821,4.123 -10.094,5.695 -1.36,0.639 -3.294,-0.127 -3.294,-2.867 V 125.77 c -0.036,-1.645 1.904,-3.444 3.604,-3.466 z m 14.982,0 h 12.304 v 4.591 h -7.926 c -0.809,0 -1.488,0.19 -1.467,1.125 0.041,0.9 0.699,1.2 1.3,1.191 h 5.079 c 1.721,0 3,1.5 3,3.442 v 2.612 c 0,2.317 -0.213,2.997 -2.02,4.313 -4.187,3.039 -8.734,6.014 -13.346,8.776 V 142 l 7.757,-4.971 c 1.042,-0.681 1.445,-1.404 1.468,-2.402 h -6.291 c -1.381,0 -2.934,-1.466 -2.934,-2.889 v -6.482 c 0.016,-1.932 1.5,-2.932 3.1,-2.953 h -0.024 z"
         id="path2823" />
    </g>
  </g>
</svg>
