<?xml version="1.0" encoding="UTF-8" standalone="no"?>
<svg
   xmlns:dc="http://purl.org/dc/elements/1.1/"
   xmlns:cc="http://creativecommons.org/ns#"
   xmlns:rdf="http://www.w3.org/1999/02/22-rdf-syntax-ns#"
   xmlns:svg="http://www.w3.org/2000/svg"
   xmlns="http://www.w3.org/2000/svg"
   xmlns:sodipodi="http://sodipodi.sourceforge.net/DTD/sodipodi-0.dtd"
   xmlns:inkscape="http://www.inkscape.org/namespaces/inkscape"
   width="771.93201"
   height="620.02802"
   viewBox="0 0 204.24034 164.04907"
   version="1.1"
   id="svg891"
   inkscape:version="1.0.1 (1.0.1+r74)"
   sodipodi:docname="LogoHonda.svg">
  <defs
     id="defs885" />
  <sodipodi:namedview
     id="base"
     pagecolor="#ffffff"
     bordercolor="#666666"
     borderopacity="1.0"
     inkscape:pageopacity="0.0"
     inkscape:pageshadow="2"
     inkscape:zoom="0.46987214"
     inkscape:cx="549.23985"
     inkscape:cy="296.7872"
     inkscape:document-units="px"
     inkscape:current-layer="layer1"
     inkscape:document-rotation="0"
     showgrid="false"
     units="px"
     inkscape:window-width="1364"
     inkscape:window-height="704"
     inkscape:window-x="0"
     inkscape:window-y="0"
     inkscape:window-maximized="0" />
  <metadata
     id="metadata888">
    <rdf:RDF>
      <cc:Work
         rdf:about="">
        <dc:format>image/svg+xml</dc:format>
        <dc:type
           rdf:resource="http://purl.org/dc/dcmitype/StillImage" />
        <dc:title></dc:title>
      </cc:Work>
    </rdf:RDF>
  </metadata>
  <g
     inkscape:label="Layer 1"
     inkscape:groupmode="layer"
     id="layer1">
    <path
       style="fill:#ff0303;stroke:none;stroke-width:0.26928"
       d="M 50.168732,134.94682 C 48.3177,131.4793 43.653229,128.37801 40.74394,125.74553 34.169751,119.79716 27.930404,113.475 21.355803,107.52608 17.959487,104.45279 11.321374,100.16908 11.135033,95.09344 10.929572,89.497273 17.892195,87.257953 22.163647,85.761025 34.904885,81.296101 47.776711,77.037716 60.401349,72.256388 90.551237,60.837591 121.40475,51.240466 151.68713,40.174693 c 7.16283,-2.617397 14.45789,-4.882038 21.54236,-7.715669 4.2312,-1.692692 8.61533,-3.370034 12.11732,-6.38195 6.33372,-5.447284 10.53717,-16.4269413 12.38713,-24.4236304 L 197.46465,1.3841641 C 193.0727,2.5853901 188.93846,5.3288397 184.80851,7.225189 174.93483,11.758913 165.13063,16.4171 155.18776,20.809884 128.79216,32.471681 101.73523,42.908688 74.942439,53.624399 60.286365,59.486074 45.70595,65.535172 31.049878,71.39685 23.091934,74.579734 13.486543,77.12658 6.8186678,82.654079 5.5388362,83.71504 4.388191,85.03747 3.5501163,86.476502 -3.6227788,98.793343 11.391037,109.6332 18.932296,117.17436 l 6.193425,6.19345 c 2.230772,2.23069 4.820647,4.37335 6.591966,7.00126 0.760449,1.12826 1.376558,3.83885 2.637589,4.41537 1.251613,0.57194 3.415817,0.16241 4.772985,0.16241 H 50.168732 M 56.631438,91.862131 V 91.59285 c -2.675831,-2.664252 4.621636,-3.804649 6.193434,-4.208838 8.371091,-2.152348 16.678358,-4.553787 25.042989,-6.731719 16.908329,-4.402183 33.726729,-9.152273 50.624569,-13.595114 5.74857,-1.5112 11.48557,-3.066287 17.2339,-4.577756 3.67511,-0.966174 7.67473,-1.64449 11.04045,-3.477205 6.28823,-3.42389 9.78375,-9.294184 13.157,-15.341125 1.28204,-2.298032 3.07275,-4.928355 3.53833,-7.539828 -4.06746,0.40769 -8.52243,3.015932 -12.38685,4.39141 -8.92527,3.176423 -17.93025,6.199626 -26.92795,9.161159 -30.05243,9.891986 -60.191013,19.528152 -90.208677,29.532158 -9.841901,3.280094 -19.70345,6.615928 -29.620748,9.66256 -3.178039,0.976404 -8.913693,1.882258 -9.373896,5.955655 -0.258802,2.290757 2.580402,6.624003 5.065419,6.604603 3.815882,-0.0299 8.422262,-2.163638 12.117589,-3.135209 8.164011,-2.146421 16.379196,-4.142863 24.504441,-6.43147 m -34.737075,11.579019 5.65488,5.65569 2.962075,2.23851 4.308469,-0.6767 8.886229,-1.66738 30.967162,-5.81942 c -1.876627,-3.298659 2.190853,-3.454022 4.577735,-3.931454 6.276639,-1.255657 12.573202,-2.407111 18.849585,-3.662206 11.288732,-2.25737 22.599822,-4.519859 33.929222,-6.56396 6.57553,-1.186172 14.4719,-1.682186 20.46525,-4.761672 5.11712,-2.629242 8.37944,-7.652384 11.48934,-12.317112 1.12507,-1.687844 2.77978,-3.610501 3.05176,-5.654872 l -13.19471,3.262591 -27.73581,7.138602 -68.396996,17.572641 -35.814191,9.186742 m 10.50191,9.96335 c 1.635869,2.27433 4.169799,4.00311 6.193425,5.93465 1.103785,1.05369 2.278921,2.55142 3.769921,3.06222 1.429336,0.48983 3.390498,-0.11448 4.847036,-0.30401 3.587869,-0.46746 7.183292,-0.87918 10.77118,-1.34639 12.335689,-1.60705 25.268913,-4.39707 37.699139,-4.65367 -1.104594,-2.05219 0.109076,-2.90312 2.154232,-3.25265 3.394814,-0.58029 6.825164,-1.01922 10.232614,-1.52115 8.83183,-1.30115 19.85696,-1.1859 27.73581,-5.69393 3.22813,-1.84671 5.5862,-4.89199 8.08512,-7.574014 1.75489,-1.88361 3.92099,-3.899433 5.10958,-6.193425 l -0.26929,-0.269281 c -18.44133,4.771357 -37.82354,7.157993 -56.548695,10.66643 -19.817369,3.71309 -39.782022,8.60455 -59.780072,11.14522 m 12.65614,11.57901 7.539832,7.38472 2.962067,2.41625 6.462716,0.16241 h 14.54109 49.547432 l -17.77244,-11.22384 -8.616943,-5.08562 -6.193425,0.57706 -11.579034,1.38385 -23.42732,2.72483 -13.463975,1.66037 m 15.618217,13.57815 c -4.304164,0.56549 -8.573866,0.97372 -12.116512,3.79523 -4.741196,3.77611 -4.968471,11.83726 -0.515395,15.93624 4.957701,4.56321 13.611004,4.79586 19.902467,4.04322 3.438966,-0.41119 7.226374,-1.25134 9.963316,-3.51221 4.5169,-3.73059 5.235622,-11.07816 1.221196,-15.48356 -4.11862,-4.5204 -12.691145,-5.53587 -18.455072,-4.77892 m -57.8951107,0.69367 v 2.96208 c 1.2592336,0.054 3.0054808,0.13687 3.9008086,1.15224 0.8120994,0.92066 0.6765108,2.28728 0.6769458,3.42551 7.002e-4,2.80159 0.9957131,7.99355 -0.3922868,10.47282 -0.9127016,1.63022 -2.5900227,0.7276 -3.7537079,1.65231 -0.6778916,0.53855 -0.4316749,1.92506 -0.4317597,2.68524 H 20.817251 c -3.51e-4,-3.8857 -1.868963,-1.70104 -3.863411,-3.88273 -1.120715,-1.22605 -0.714343,-3.47775 -0.714343,-5.00349 h 14.002537 c 0,3.68428 0.0084,5.91231 -4.30847,5.92415 v 2.96207 h 18.041733 c 0,-0.76018 0.246114,-2.14669 -0.431657,-2.68524 -1.177561,-0.93575 -2.919261,0.0308 -3.828616,-1.63886 -1.303582,-2.39253 -0.317482,-7.51692 -0.317482,-10.21698 0,-1.09113 -0.238045,-2.52909 0.431657,-3.47129 0.885664,-1.24596 2.761186,-1.26643 4.146098,-1.37575 v -2.96208 H 25.933564 v 2.96208 c 4.215839,0.33311 4.30847,2.1669 4.30847,5.92413 H 16.239497 c 0,-3.86281 0.360484,-5.5913 4.577754,-5.92413 v -2.96208 H 2.7755193 m 80.2453147,0 v 2.96208 c 1.279625,0.16185 3.001391,0.10182 3.922315,1.13851 1.163576,1.30978 0.65544,3.96918 0.65544,5.59349 0,4.39382 1.284191,9.69028 -4.577755,9.69405 v 3.23136 h 14.271809 v -3.23136 c -6.677316,-0.1378 -4.577755,-8.60725 -4.577755,-13.46397 3.265553,3.41446 6.016254,7.53067 8.852042,11.30974 1.17271,1.56261 2.53821,4.13936 4.3467,4.99944 3.08594,1.4681 8.73004,0.38615 12.11355,0.38615 v -12.92541 c 0,-1.58931 -0.42951,-3.96812 0.50031,-5.35625 0.85954,-1.28339 2.68338,-1.34694 4.07743,-1.37575 v -2.96208 h -14.27181 v 2.96208 l 3.92232,1.13851 0.65544,3.70853 v 8.61694 l -9.31061,-11.8483 -3.639036,-4.26026 -5.092084,-0.3175 H 83.020834 m 41.199766,0 v 2.96208 c 1.28016,0.16185 3.22651,0.0837 4.10867,1.1832 0.70765,0.88217 0.46909,2.3414 0.46909,3.39455 0,2.72268 1.03215,8.08351 -0.27681,10.48627 -0.90911,1.669 -2.69334,0.70445 -3.86929,1.63886 -0.79546,0.63199 -0.58568,2.57161 0.41603,2.86889 2.45772,0.72977 6.01249,0.0856 8.5771,0.0856 6.94634,0 15.97125,1.39998 22.35021,-1.88011 6.65255,-3.42066 7.62329,-12.94885 1.88496,-17.6887 -3.76938,-3.11368 -8.59648,-3.05068 -13.1947,-3.05068 H 124.2206 m 43.35403,0 v 2.96209 c 1.28905,0.16297 4.03648,-0.0802 4.66635,1.3367 0.56333,1.26722 -1.68167,3.82943 -2.32875,4.85672 -2.5665,4.07473 -4.40998,10.21754 -9.87744,10.23262 v 3.23136 h 14.27183 c 0,-0.81215 0.28759,-2.37935 -0.43167,-2.95481 -0.84822,-0.67832 -3.22623,-0.1104 -2.98496,-1.89707 0.13891,-1.02703 1.0809,-1.95092 2.07426,-2.10953 2.65026,-0.42332 5.65891,-0.0399 8.34364,-0.0399 1.21984,0 2.87456,-0.28488 4.0284,0.16242 0.98503,0.3821 2.42218,2.17172 1.26751,3.08568 -0.87756,0.69445 -2.36643,0.52104 -3.41096,0.52185 v 3.23136 h 19.38813 l -0.27682,-2.7997 -2.95346,-0.87679 -2.6042,-2.78624 -7.4499,-11.30973 -3.42173,-4.52954 -5.64411,-0.3175 h -12.65612 m -105.019049,3.30837 c 2.76228,-0.3137 5.973428,0.48875 7.579422,2.88534 2.925188,4.36528 1.157618,12.2506 -4.617346,12.8783 -2.589667,0.28165 -5.940841,0.35464 -7.99733,-1.48373 -3.04609,-2.72269 -3.150846,-9.49453 -0.261736,-12.38337 1.442256,-1.44253 3.374609,-1.67815 5.29699,-1.89654 m 75.129019,15.00263 v -14.00252 c 3.18127,0 8.18904,-0.94465 11.03641,0.65083 3.42551,1.91998 3.6097,10.39904 0.26175,12.48247 -2.91683,1.8152 -8.00058,0.86922 -11.29816,0.86922 m 41.19976,-13.46398 4.30848,6.73199 h -8.61695 c 0.81457,-2.22477 2.47926,-5.21647 4.30847,-6.73199 z"
       id="path1538" />
  </g>
</svg>
