<?xml version="1.0" encoding="UTF-8" standalone="no"?>
<svg
   xmlns:dc="http://purl.org/dc/elements/1.1/"
   xmlns:cc="http://creativecommons.org/ns#"
   xmlns:rdf="http://www.w3.org/1999/02/22-rdf-syntax-ns#"
   xmlns:svg="http://www.w3.org/2000/svg"
   xmlns="http://www.w3.org/2000/svg"
   xmlns:sodipodi="http://sodipodi.sourceforge.net/DTD/sodipodi-0.dtd"
   xmlns:inkscape="http://www.inkscape.org/namespaces/inkscape"
   width="771.93201"
   height="620.02802"
   viewBox="0 0 204.24034 164.04907"
   version="1.1"
   id="svg891"
   inkscape:version="1.0.1 (1.0.1+r74)"
   sodipodi:docname="LogoBmw.svg">
  <defs
     id="defs885" />
  <sodipodi:namedview
     id="base"
     pagecolor="#ffffff"
     bordercolor="#666666"
     borderopacity="1.0"
     inkscape:pageopacity="0.0"
     inkscape:pageshadow="2"
     inkscape:zoom="0.46987214"
     inkscape:cx="404.81961"
     inkscape:cy="122.12572"
     inkscape:document-units="px"
     inkscape:current-layer="layer1"
     inkscape:document-rotation="0"
     showgrid="false"
     units="px"
     inkscape:window-width="1364"
     inkscape:window-height="704"
     inkscape:window-x="0"
     inkscape:window-y="0"
     inkscape:window-maximized="0" />
  <metadata
     id="metadata888">
    <rdf:RDF>
      <cc:Work
         rdf:about="">
        <dc:format>image/svg+xml</dc:format>
        <dc:type
           rdf:resource="http://purl.org/dc/dcmitype/StillImage" />
        <dc:title></dc:title>
      </cc:Work>
    </rdf:RDF>
  </metadata>
  <g
     inkscape:label="Layer 1"
     inkscape:groupmode="layer"
     id="layer1">
    <g
       id="BMW_Grey-Colour_RGB"
       fill-rule="nonzero"
       style="fill:none;stroke:none;stroke-width:1"
       transform="matrix(3.0545524,0,0,3.0545524,21.17453,1.0788987)">
      <path
         d="M 26.5,0 C 11.864858,0 0,11.864858 0,26.5 0,41.135142 11.864858,53 26.5,53 41.135142,53 53,41.135142 53,26.5 53,11.864858 41.135142,0 26.5,0 Z M 51.276752,26.5 C 51.276752,40.183149 40.184707,51.276752 26.5,51.276752 12.815293,51.276752 1.7232479,40.183149 1.7232479,26.5 1.7232479,12.816851 12.816851,1.7232479 26.5,1.7232479 40.183149,1.7232479 51.276752,12.816851 51.276752,26.5 Z"
         id="Shape"
         fill="#6f6f6f" />
      <path
         d="m 26.5,10.796296 v 0.86101 0 c 8.183489,0 14.842694,6.657648 14.842694,14.842694 h 0.86101 c 0,-8.672381 -7.031323,-15.703704 -15.703704,-15.703704 v 0 m 0,30.546398 c -8.183489,0 -14.842694,-6.657648 -14.842694,-14.842694 h -0.86101 c 0,8.672381 7.031323,15.703704 15.703704,15.703704"
         id="path2423"
         fill="#6f6f6f" />
      <g
         id="Group"
         transform="translate(7.197531,3.271605)"
         fill="#6f6f6f">
        <path
           d="m 31.990729,12.045834 c 0.359587,0.383389 0.877951,1.001758 1.169045,1.377417 l 5.361105,-3.379388 C 38.253135,9.6960304 37.826613,9.1673246 37.5075,8.7947572 l -3.395056,2.2292208 -0.231941,0.197879 0.172788,-0.25044 L 35.552346,8.0001526 34.492267,6.9473789 31.498828,8.436103 31.24665,8.6077004 31.447458,8.3773579 33.693705,5.0072453 C 33.298316,4.6733259 32.918493,4.3672331 32.434375,3.9962115 l -3.402839,5.3195218 c 0.431192,0.3292816 0.99937,0.8131557 1.36207,1.1424377 L 33.597193,8.8071245 33.802671,8.65717 33.651676,8.8612318 Z"
           id="W_61_" />
        <path
           d="m 19.825504,5.3040625 1.464808,-3.2588061 0.0934,-0.2890876 -0.02646,0.301455 0.154109,4.3548657 c 0.513694,0.047924 1.044512,0.1190361 1.567547,0.2056078 L 22.840736,0.16850563 C 22.10911,0.08811762 21.380598,0.03091846 20.652085,0 L 19.20907,3.5571693 19.157701,3.8215222 19.106331,3.5571693 17.664873,0 C 16.93636,0.03091846 16.207847,0.08811762 15.476222,0.16850563 L 15.238054,6.6180973 c 0.523035,-0.086572 1.053853,-0.1561383 1.567547,-0.2056078 l 0.154109,-4.3548657 -0.02646,-0.301455 0.0934,0.2890876 1.464808,3.2588061 z"
           id="M_61_" />
        <path
           d="M 7.977835,10.444257 C 8.824653,9.5584432 9.3041014,8.5350421 8.4572835,7.5580186 7.9965148,7.0277669 7.2228594,6.9118227 6.5815193,7.1730837 l -0.063823,0.024735 0.020237,-0.055653 C 6.6328888,6.8901798 6.6935982,6.0862997 6.0040019,5.5313132 5.6677653,5.2607767 5.245913,5.1602917 4.8193907,5.2035775 4.0239421,5.2839655 3.4121784,5.8234927 1.7465621,7.6677791 1.2437639,8.2243115 0.51213809,9.1023959 0.07316258,9.6712956 c 0,0 4.57499652,4.3100334 4.57499652,4.3100334 1.5161778,-1.666505 2.1341682,-2.28642 3.3296759,-3.537072 z M 2.0080795,9.3899376 C 2.9296167,8.2706892 3.90875,7.2550176 4.3523955,6.8530776 4.492494,6.7263119 4.6450458,6.5995462 4.8302872,6.5500766 5.1307208,6.4681427 5.4404943,6.6799342 5.5105436,6.986027 5.5805929,7.2936657 5.3860115,7.5858452 5.1696371,7.8270092 4.6824054,8.3727201 2.8953704,10.229374 2.8953704,10.229374 c 0,0 -0.8872909,-0.8394364 -0.8872909,-0.8394364 z m 1.791705,1.6881484 c 0,0 1.7403355,-1.8272815 2.308513,-2.4116405 C 6.3340119,8.4345571 6.4787804,8.293878 6.6344454,8.2181278 6.8352534,8.1207346 7.0547411,8.1006376 7.2508791,8.2304952 7.4439038,8.3588068 7.5326329,8.5798738 7.4843767,8.7993949 7.4267807,9.0606559 7.2119629,9.3095496 7.0345047,9.4996981 6.7947805,9.7547755 4.7306616,11.948441 4.7275483,11.951532 Z"
           id="B_x5F_22d_61_" />
      </g>
      <path
         d="M 26.5,10.796296 V 26.5 H 10.796296 c 0,-8.678608 7.025096,-15.703704 15.703704,-15.703704 z"
         id="Path"
         fill="#0066b1" />
      <path
         d="m 42.203704,26.5 c 0,8.678608 -7.025096,15.703704 -15.703704,15.703704 V 26.5 Z"
         id="path2430"
         fill="#0066b1" />
    </g>
  </g>
</svg>
